<svg id="Layer_1" data-name="Layer 1" xmlns="http://www.w3.org/2000/svg" viewBox="0 0 368.59 45.24"><title>burns-charest</title><path d="M27.42,26.29q0,14.66-13.73,14.65T0,26.26V0H5.76V11.58h7.93Q27.42,11.58,27.42,26.29Zm-5.76,0q0-4.5-1.49-6.5-1.89-2.5-6.48-2.5H5.76v9q0,4.44,1.5,6.45c1.22,1.66,3.36,2.5,6.43,2.5s5.22-.84,6.48-2.5Q21.66,30.73,21.66,26.29Z" style="fill:#fff"/><path d="M58.23,26.29q0,14.66-13.74,14.65T30.8,26.29V11.58h5.77V26.32c0,3,.49,5.15,1.49,6.48,1.22,1.62,3.36,2.44,6.43,2.44s5.21-.82,6.43-2.44q1.48-2,1.49-6.48V11.58h5.82Z" style="fill:#fff"/><path d="M77.56,17.29c-3.58,0-6,.49-7.42,1.49a4,4,0,0,0-1.5,3.44V40.94H62.88V22.25q0-10.66,14.68-10.67Z" style="fill:#fff"/><path d="M107.2,40.94h-5.76V26.26q0-4.49-1.49-6.48c-1.22-1.66-3.37-2.49-6.43-2.49s-5.23.83-6.48,2.49q-1.5,2-1.5,6.48V40.94H79.78V26.29q0-14.71,13.74-14.71T107.2,26.29Z" style="fill:#fff"/><path d="M135.46,20.33H129.7a2.32,2.32,0,0,0-.78-1.94c-.88-.73-2.66-1.1-5.32-1.1s-4.43.37-5.32,1.11a2.38,2.38,0,0,0-.77,2,2.29,2.29,0,0,0,1.08,2.24,17.23,17.23,0,0,0,5.23.84,21.39,21.39,0,0,1,7.48,1.49q4.15,2.1,4.16,7.29,0,8.78-11.86,8.78t-11.85-8.81h5.76a2.39,2.39,0,0,0,.77,2c.89.76,2.66,1.13,5.32,1.13s4.44-.37,5.32-1.12a2.33,2.33,0,0,0,.78-2,2.26,2.26,0,0,0-1-2.18,16.29,16.29,0,0,0-5.26-.9A21.31,21.31,0,0,1,116,27.65q-4.21-2-4.21-7.29,0-8.77,11.85-8.78T135.46,20.33Z" style="fill:#fff"/><path d="M176,32q-2.39,9-13,9-13.7,0-13.69-14.71T163,11.62q10.64,0,13,8.92h-6.1c-1.11-2.14-3.41-3.21-6.92-3.21q-4.61,0-6.43,2.44c-1,1.34-1.5,3.5-1.5,6.5s.5,5.17,1.5,6.51c1.22,1.66,3.36,2.5,6.43,2.5q5.21,0,6.92-3.27Z" style="fill:#fff"/><path d="M206.34,41h-5.81V26.3q0-4.49-1.49-6.48-1.81-2.49-6.38-2.49c-3,0-5.19.83-6.44,2.49q-1.49,2-1.48,6.48V41h-5.82V0h5.82V13.5a15.58,15.58,0,0,1,7.92-1.88q13.68,0,13.68,14.71Z" style="fill:#fff"/><path d="M233.88,32.17Q233.88,41,222,41q-6.83,0-9.81-3.15a8,8,0,0,1-2-5.66,8,8,0,0,1,2-5.65q3-3.15,9.81-3.15,4,0,5.37-1.11a2.26,2.26,0,0,0,.78-1.89,2.29,2.29,0,0,0-.78-1.93Q226,17.33,222,17.33c-2.66,0-4.44.37-5.32,1.11a2.29,2.29,0,0,0-.78,1.93h-5.76a7.9,7.9,0,0,1,2-5.61q3-3.13,9.81-3.14,11.91,0,11.91,8.75Zm-5.76,0V28.3a18.86,18.86,0,0,1-6.15.88c-2.66,0-4.44.36-5.32,1.07a2.33,2.33,0,0,0-.78,2,2.34,2.34,0,0,0,.78,2c.88.75,2.66,1.12,5.32,1.12s4.48-.37,5.37-1.12A2.33,2.33,0,0,0,228.12,32.21Z" style="fill:#fff"/><path d="M253,17.33c-3.58,0-6.06.5-7.42,1.49a4,4,0,0,0-1.5,3.44V41h-5.76V22.29q0-10.66,14.68-10.67Z" style="fill:#fff"/><path d="M282.3,41H268.61q-13.74,0-13.74-14.65t13.74-14.71q13.69,0,13.69,14.69v2.87H260.8q.88,6.1,7.81,6.1H282.3Zm-5.93-17.5q-.89-6.15-7.76-6.15t-7.81,6.15Z" style="fill:#fff"/><path d="M310.55,20.37h-5.76a2.31,2.31,0,0,0-.77-1.93q-1.33-1.11-5.32-1.11t-5.32,1.12a2.33,2.33,0,0,0-.78,1.95,2.28,2.28,0,0,0,1.08,2.24,17.32,17.32,0,0,0,5.24.84A21.5,21.5,0,0,1,306.4,25q4.16,2.1,4.15,7.29,0,8.77-11.85,8.78t-11.86-8.81h5.76a2.4,2.4,0,0,0,.78,2q1.33,1.13,5.32,1.12T304,34.21a2.36,2.36,0,0,0,.77-2,2.28,2.28,0,0,0-1-2.18,16.37,16.37,0,0,0-5.27-.9,21.08,21.08,0,0,1-7.48-1.49q-4.21-2-4.21-7.29,0-8.77,11.86-8.78T310.55,20.37Z" style="fill:#fff"/><path d="M330.17,41q-14.69,0-14.69-10.69V0h5.77V11.62h8.92v5.71h-8.92v13a4.06,4.06,0,0,0,1.49,3.46c1.37,1,3.84,1.5,7.43,1.5Z" style="fill:#fff"/><path d="M346.65,40.41c-4.09,0-6.14-1.47-6.14-4.43V23.36h2.4V36a1.58,1.58,0,0,0,.65,1.41,5.46,5.46,0,0,0,3.09.63Z" style="fill:#fff"/><path d="M354.74,40.41c-4.09,0-6.13-1.47-6.13-4.43V23.36H351V36a1.6,1.6,0,0,0,.64,1.41,5.48,5.48,0,0,0,3.09.63Z" style="fill:#fff"/><path d="M368.59,34.31q0,6.11-5.72,6.1h-3.3v4.83h-2.4V34.31q0-6.12,5.7-6.12T368.59,34.31Zm-2.4,0a4.57,4.57,0,0,0-.63-2.71,3.17,3.17,0,0,0-2.69-1,3.12,3.12,0,0,0-2.68,1,4.57,4.57,0,0,0-.62,2.71V38h3.3a3.19,3.19,0,0,0,2.69-1A4.61,4.61,0,0,0,366.19,34.31Z" style="fill:#fff"/></svg>